# xmcd
#
# Track frame offsets: 
#        150
#        14397
#        27907
#        42002
#        57317
#        67674
#        80370
#        95252
#        109712
#        124694
#        138462
#        150049
#        163203
#        178911
#        193311
#        208634
#        222494
#        237254
#
# Disc length: 3358 seconds
#
# Revision: 1
# Processed by: cddbd v1.5.2PL0 Copyright (c) Steve Scherf et al.
# Submitted via: ExactAudioCopy v0.95b2
#
DISCID=f10d1c12
DTITLE=Various Artist - The Essential Country Blues Disc 1
DYEAR=2001
DGENRE=Blues
TTITLE0=Blind Boy Fuller/Weeping Willow 
TTITLE1=Pearl Dickson/Little Rock Blues 
TTITLE2=Willie Baker/Weak Minded Woman 
TTITLE3=Ishman Bracey/Saturday Blues 
TTITLE4=Lottie Kimborough/Rolling Log Blues 
TTITLE5=Bob Campbell/Starvation Farm Blues 
TTITLE6=Lane Hardin/California Desert Blues 
TTITLE7=Shreveport Home Wreckers/Fence Breakin' Blues 
TTITLE8=Rube Lacey/Mississippi Jailhouse Groan 
TTITLE9=Henry Thomas/Charming Betsy 
TTITLE10=Barefoot Bill/Mamlish Blues 
TTITLE11=Blind Lemon Jefferson/Easy Rider Blues 
TTITLE12=DeFord Baily/Davidson County Blues 
TTITLE13=Little Hat Jones/Kentucky Blues 
TTITLE14=Luke Jordan/Cocaine Blues 
TTITLE15=Troy Ferguson /Mama, You Gotta Get It Fixed 
TTITLE16=William Moore/One Way Gal 
TTITLE17=Arthur Petties/Two Time Blues 
EXTD=YEAR: 2001
EXTT0=
EXTT1=
EXTT2=
EXTT3=
EXTT4=
EXTT5=
EXTT6=
EXTT7=
EXTT8=
EXTT9=
EXTT10=
EXTT11=
EXTT12=
EXTT13=
EXTT14=
EXTT15=
EXTT16=
EXTT17=
PLAYORDER=
